<?xml version="1.0" standalone="no"?>
<!DOCTYPE svg PUBLIC "-//W3C//DTD SVG 20010904//EN"
 "http://www.w3.org/TR/2001/REC-SVG-20010904/DTD/svg10.dtd">
<svg version="1.0" xmlns="http://www.w3.org/2000/svg"
 width="500.000000pt" height="500.000000pt" viewBox="0 0 500.000000 500.000000"
 preserveAspectRatio="xMidYMid meet">
<metadata>
Created by potrace 1.14, written by Peter Selinger 2001-2017
</metadata>
<g transform="translate(0.000000,500.000000) scale(0.100000,-0.100000)"
fill="#000000" stroke="none">
<path d="M2220 4985 c-868 -110 -1589 -619 -1965 -1390 -168 -343 -244 -666
-250 -1055 -4 -227 5 -329 46 -534 196 -983 973 -1759 1956 -1955 1011 -202
2028 227 2592 1094 539 827 532 1909 -19 2738 -393 592 -1027 993 -1730 1092
-161 23 -485 28 -630 10z m404 -1900 c207 -44 391 -214 450 -415 61 -207 4
-431 -149 -586 -79 -80 -134 -115 -234 -150 -214 -74 -447 -19 -611 146 -114
114 -164 225 -176 385 -22 294 200 576 489 624 80 13 155 12 231 -4z"/>
</g>
</svg>
